# File created by Blade
# Date/Time:  Thu Jan 22 18:25:10 2015
# Frame Rate: 120.000 fps
#------------------------------------------------------
:FULLY-SPECIFIED
:DEGREES
3220
root -2.951427 33.076578 -0.361541 7.479956 -2.852681 2.572887
RightUpLeg -1.192135 -4.342382 -1.922459
RightLeg 0.070427 -0.000000 -0.000000
RightFoot -12.220853 -3.244954 3.489875
RightToeBase 6.084979 -0.000000 -0.000000
LeftUpLeg -0.869161 5.143050 0.768012
LeftLeg 1.091294 -0.000000 -0.000000
LeftFoot -11.270353 1.817715 -9.526562
LeftToeBase 8.841560 -0.000000 -0.000000
Spine -13.682509 -10.894297 -2.621111
RightShoulder 6.184663 3.470735 -19.154270
RightArm 61.096421 -37.096453 71.388749
RightForeArm 42.669915 -0.000000 109.247033
RightHand 20.648218 -0.000000 22.586496
RightHandThumb1 -24.326973 -0.000000 -32.862282
LeftShoulder -0.522679 -46.519932 39.172096
LeftArm 75.045936 44.078501 -83.547930
LeftForeArm 17.501127 -0.000000 115.878761
LeftHand -1.765571 -0.000000 -32.653625
LeftHandThumb1 -26.253704 0.000000 33.147579
Head -1.361899 13.748004 5.575616
3221
root -2.949839 33.077161 -0.362226 7.479984 -2.859256 2.571802
RightUpLeg -1.192227 -4.344546 -1.924281
RightLeg 0.066529 -0.000000 -0.000000
RightFoot -12.214472 -3.243495 3.482292
RightToeBase 6.124119 -0.000000 -0.000000
LeftUpLeg -0.864234 5.163188 0.764190
LeftLeg 1.079827 -0.000000 -0.000000
LeftFoot -11.249736 1.813511 -9.499616
LeftToeBase 8.794353 -0.000000 -0.000000
Spine -13.668151 -10.916333 -2.582116
RightShoulder 6.197040 3.427577 -19.175032
RightArm 61.272242 -37.046084 71.356262
RightForeArm 42.719706 -0.000000 109.197113
RightHand 20.698271 -0.000000 22.594806
RightHandThumb1 -24.326973 -0.000000 -32.862282
LeftShoulder -0.499008 -46.705899 39.306100
LeftArm 75.854324 44.478462 -82.085436
LeftForeArm 23.758499 0.000000 115.283616
LeftHand 0.574008 -0.000000 -27.431891
LeftHandThumb1 -26.253704 0.000000 33.147579
Head -1.385763 13.788059 5.475822
3222
root -2.947740 33.078680 -0.363702 7.478405 -2.870999 2.571890
RightUpLeg -1.197019 -4.328369 -1.930398
RightLeg 0.066279 -0.000000 -0.000000
RightFoot -12.201653 -3.235040 3.489553
RightToeBase 6.138209 -0.000000 -0.000000
LeftUpLeg -0.852849 5.168443 0.758754
LeftLeg 1.057464 -0.000000 -0.000000
LeftFoot -11.235285 1.822578 -9.517660
LeftToeBase 8.778635 -0.000000 -0.000000
Spine -13.648221 -10.934293 -2.552586
RightShoulder 6.204734 3.382700 -19.190448
RightArm 61.453879 -36.988014 71.299085
RightForeArm 42.772081 -0.000000 109.148137
RightHand 20.779875 -0.000000 22.484732
RightHandThumb1 -24.326973 -0.000000 -32.862282
LeftShoulder -0.576585 -46.661200 39.499394
LeftArm 75.950788 44.364535 -82.023871
LeftForeArm 23.386003 -0.000000 115.047229
LeftHand 0.835528 -0.000000 -27.355650
LeftHandThumb1 -26.253704 0.000000 33.147579
Head -1.411778 13.821894 5.398330
3223
root -2.946293 33.078651 -0.365208 7.479790 -2.890668 2.568356
RightUpLeg -1.204767 -4.318628 -1.931300
RightLeg 0.066512 -0.000000 -0.000000
RightFoot -12.191718 -3.224732 3.513101
RightToeBase 6.112626 -0.000000 -0.000000
LeftUpLeg -0.846406 5.180519 0.758053
LeftLeg 1.042121 -0.000000 -0.000000
LeftFoot -11.208755 1.802726 -9.574886
LeftToeBase 8.692696 -0.000000 -0.000000
Spine -13.639980 -10.932004 -2.541598
RightShoulder 6.241128 3.931686 -19.208043
RightArm 60.850319 -37.080385 71.768483
RightForeArm 42.774732 -0.000000 109.159945
RightHand 20.652038 -0.000000 22.490957
RightHandThumb1 -24.326973 -0.000000 -32.862282
LeftShoulder -0.398796 -46.972847 39.703750
LeftArm 75.470457 44.179565 -82.368524
LeftForeArm 23.332317 -0.000000 114.987342
LeftHand 0.660085 0.000000 -27.492073
LeftHandThumb1 -26.253704 0.000000 33.147579
Head -1.408068 13.853268 5.374717
3224
root -2.943682 33.080282 -0.365911 7.470772 -2.906252 2.567485
RightUpLeg -1.199788 -4.295293 -1.937908
RightLeg 0.065418 -0.000000 -0.000000
RightFoot -12.173217 -3.234217 3.506125
RightToeBase 6.060740 -0.000000 -0.000000
LeftUpLeg -0.829958 5.204298 0.752176
LeftLeg 1.028614 -0.000000 -0.000000
LeftFoot -11.188219 1.801961 -9.547586
LeftToeBase 8.687976 -0.000000 -0.000000
Spine -13.616021 -10.920238 -2.535383
RightShoulder 6.222739 3.972360 -19.212981
RightArm 60.951715 -37.037744 71.735919
RightForeArm 42.882316 -0.000000 109.096386
RightHand 20.697519 -0.000000 22.500088
RightHandThumb1 -24.326973 -0.000000 -32.862282
LeftShoulder -0.622397 -46.713356 39.937980
LeftArm 75.808194 44.069772 -82.159793
LeftForeArm 22.910490 0.000000 114.575802
LeftHand 1.000434 -0.000000 -27.513875
LeftHandThumb1 -26.253704 0.000000 33.147579
Head -1.411238 13.859679 5.348403
3225
root -2.940622 33.081181 -0.367739 7.475034 -2.930306 2.561788
RightUpLeg -1.209068 -4.281029 -1.939295
RightLeg 0.060347 -0.000000 -0.000000
RightFoot -12.162074 -3.230443 3.502666
RightToeBase 6.120404 -0.000000 -0.000000
LeftUpLeg -0.828596 5.194936 0.749926
LeftLeg 1.016992 -0.000000 -0.000000
LeftFoot -11.203737 1.857278 -9.495273
LeftToeBase 8.783605 -0.000000 -0.000000
Spine -13.597495 -10.901165 -2.529085
RightShoulder 6.106534 3.796075 -19.239904
RightArm 61.387710 -36.959182 71.506188
RightForeArm 43.080448 0.000000 108.949440
RightHand 20.790521 -0.000000 22.638681
RightHandThumb1 -24.326973 -0.000000 -32.862282
LeftShoulder -0.749506 -46.642713 40.204288
LeftArm 75.927936 43.934776 -82.070856
LeftForeArm 22.728559 -0.000000 114.225163
LeftHand 1.243562 -0.000000 -27.237729
LeftHandThumb1 -26.253704 0.000000 33.147579
Head -1.436504 13.887800 5.331443
3226
root -2.938377 33.081546 -0.367770 7.463337 -2.955626 2.558166
RightUpLeg -1.202642 -4.270626 -1.943649
RightLeg 0.059806 -0.000000 -0.000000
RightFoot -12.149018 -3.205843 3.528952
RightToeBase 6.092744 -0.000000 -0.000000
LeftUpLeg -0.805491 5.210311 0.749049
LeftLeg 1.002520 -0.000000 -0.000000
LeftFoot -11.182876 1.838813 -9.555332
LeftToeBase 8.708831 -0.000000 -0.000000
Spine -13.576912 -10.897087 -2.493932
RightShoulder 6.086289 3.832092 -19.268653
RightArm 61.530100 -36.925844 71.502638
RightForeArm 43.235841 -0.000000 108.795941
RightHand 20.839220 -0.000000 22.684916
RightHandThumb1 -24.326973 -0.000000 -32.862282
LeftShoulder -0.761168 -46.682912 40.401020
LeftArm 75.796548 43.669355 -82.143341
LeftForeArm 21.898051 -0.000000 114.009911
LeftHand 1.037091 0.000000 -27.393589
LeftHandThumb1 -26.253704 0.000000 33.147579
Head -1.431909 13.945188 5.232237
3227
root -2.934535 33.082702 -0.368775 7.454340 -2.978183 2.559500
RightUpLeg -1.198648 -4.254111 -1.954445
RightLeg 0.055833 -0.000000 -0.000000
RightFoot -12.139639 -3.212181 3.510147
RightToeBase 6.117180 -0.000000 -0.000000
LeftUpLeg -0.795019 5.199386 0.738461
LeftLeg 1.002898 -0.000000 -0.000000
LeftFoot -11.179497 1.868658 -9.569598
LeftToeBase 8.666085 -0.000000 -0.000000
Spine -13.557268 -10.893932 -2.455730
RightShoulder 6.080944 3.920094 -19.308682
RightArm 61.636850 -36.903756 71.485866
RightForeArm 43.360508 -0.000000 108.671487
RightHand 20.856106 -0.000000 22.624179
RightHandThumb1 -24.326973 -0.000000 -32.862282
LeftShoulder -0.801410 -46.763599 40.587103
LeftArm 75.567160 43.476189 -82.290606
LeftForeArm 21.411340 -0.000000 113.685309
LeftHand 1.185051 -0.000000 -27.554804
LeftHandThumb1 -26.253704 0.000000 33.147579
Head -1.425901 13.974865 5.135097
3228
root -2.930001 33.080551 -0.369920 7.448691 -3.006490 2.558895
RightUpLeg -1.200818 -4.257194 -1.964310
RightLeg 0.056707 -0.000000 -0.000000
RightFoot -12.146231 -3.178401 3.526653
RightToeBase 6.090741 -0.000000 -0.000000
LeftUpLeg -0.784961 5.200100 0.728542
LeftLeg 1.002280 -0.000000 -0.000000
LeftFoot -11.206579 1.888788 -9.575825
LeftToeBase 8.697018 -0.000000 -0.000000
Spine -13.565255 -10.801740 -2.524127
RightShoulder 6.119358 5.145850 -19.331749
RightArm 60.087697 -37.121135 72.522654
RightForeArm 43.500519 -0.000000 108.700802
RightHand 20.750513 -0.000000 22.609457
RightHandThumb1 -24.326973 -0.000000 -32.862282
LeftShoulder -0.596554 -46.871445 40.789393
LeftArm 75.311543 43.203932 -82.516964
LeftForeArm 20.912103 -0.000000 113.253954
LeftHand 1.401055 -0.000000 -27.582202
LeftHandThumb1 -26.253704 0.000000 33.147579
Head -1.297662 13.917389 5.300058
3229
root -2.926677 33.082707 -0.370364 7.433243 -3.042691 2.557306
RightUpLeg -1.193675 -4.237862 -1.972351
RightLeg 0.056318 -0.000000 -0.000000
RightFoot -12.126161 -3.171961 3.511431
RightToeBase 6.130281 -0.000000 -0.000000
LeftUpLeg -0.763449 5.205229 0.722338
LeftLeg 0.998112 -0.000000 -0.000000
LeftFoot -11.219892 1.937732 -9.507547
LeftToeBase 8.797903 -0.000000 -0.000000
Spine -13.535889 -10.803359 -2.468338
RightShoulder 6.125697 4.999114 -19.375125
RightArm 60.550499 -37.039200 72.267474
RightForeArm 43.606807 0.000000 108.544152
RightHand 20.885747 -0.000000 22.512158
RightHandThumb1 -24.326973 -0.000000 -32.862282
LeftShoulder -0.819176 -46.669132 41.053636
LeftArm 75.348214 43.011280 -82.525239
LeftForeArm 20.205582 -0.000000 112.827137
LeftHand 1.495193 -0.000000 -27.663222
LeftHandThumb1 -26.253704 0.000000 33.147579
Head -1.302723 13.983858 5.146590
3230
root -2.922573 33.084723 -0.370336 7.414543 -3.085318 2.553100
RightUpLeg -1.183661 -4.232701 -1.979426
RightLeg 0.056468 -0.000000 -0.000000
RightFoot -12.101876 -3.147193 3.517307
RightToeBase 6.152904 -0.000000 -0.000000
LeftUpLeg -0.735387 5.226276 0.714962
LeftLeg 0.988856 -0.000000 -0.000000
LeftFoot -11.208057 1.971069 -9.489058
LeftToeBase 8.777388 -0.000000 -0.000000
Spine -13.506836 -10.789418 -2.425904
RightShoulder 6.175081 4.892281 -19.347445
RightArm 60.971007 -36.867395 72.074024
RightForeArm 43.889332 -0.000000 108.353295
RightHand 20.709718 0.000000 22.840582
RightHandThumb1 -24.326973 -0.000000 -32.862282
LeftShoulder -0.997517 -46.467131 41.290971
LeftArm 75.446757 42.790763 -82.495148
LeftForeArm 19.426996 0.000000 112.295314
LeftHand 1.612814 -0.000000 -27.697930
LeftHandThumb1 -26.253704 0.000000 33.147579
Head -1.297385 14.028054 5.041255
3231
root -2.917434 33.086043 -0.370773 7.408166 -3.131963 2.550480
RightUpLeg -1.186166 -4.202480 -1.990579
RightLeg 0.053658 -0.000000 -0.000000
RightFoot -12.079691 -3.128894 3.534109
RightToeBase 6.102581 -0.000000 -0.000000
LeftUpLeg -0.723702 5.253492 0.703480
LeftLeg 0.989247 -0.000000 -0.000000
LeftFoot -11.206133 1.989855 -9.494781
LeftToeBase 8.809814 -0.000000 -0.000000
Spine -13.474325 -10.752128 -2.414213
RightShoulder 6.095338 4.511260 -19.376802
RightArm 61.735718 -36.652384 71.729240
RightForeArm 44.140462 -0.000000 108.120187
RightHand 20.479862 -0.000000 23.299466
RightHandThumb1 -24.326973 -0.000000 -32.862282
LeftShoulder -1.136477 -46.378695 41.548292
LeftArm 75.457335 42.580682 -82.528416
LeftForeArm 18.742146 -0.000000 111.734967
LeftHand 1.771776 -0.000000 -27.542935
LeftHandThumb1 -26.253704 0.000000 33.147579
Head -1.324361 14.044987 5.004706
